/* XPM */
static char * fframe_18_xpm[] = {
"18 18 2 1",
" 	c None",
".	c #21E6DA",
"                  ",
"                  ",
"   ............   ",
"    .....     .   ",
"     ...      .   ",
"     ...          ",
"     ...    .     ",
"     ...    .     ",
"     ........     ",
"     ...    .     ",
"     ...    .     ",
"     ...          ",
"     ...          ",
"     ...          ",
"     ...          ",
"   .......        ",
"                  ",
"                  "};
